<?xml version="1.0" standalone="no"?>
<!DOCTYPE svg PUBLIC "-//W3C//DTD SVG 20010904//EN"
 "http://www.w3.org/TR/2001/REC-SVG-20010904/DTD/svg10.dtd">
<svg version="1.0" xmlns="http://www.w3.org/2000/svg"
 width="250.000000pt" height="250.000000pt" viewBox="0 0 250.000000 250.000000"
 preserveAspectRatio="xMidYMid meet">
<metadata>
Created by potrace 1.16, written by Peter Selinger 2001-2019
</metadata>
<g transform="translate(0.000000,250.000000) scale(0.100000,-0.100000)"
fill="#000000" stroke="none">
<path d="M0 1250 l0 -1250 1250 0 1250 0 0 1250 0 1250 -1250 0 -1250 0 0
-1250z m1462 961 c178 -36 295 -88 414 -184 141 -112 304 -373 344 -547 7 -30
18 -75 26 -100 19 -65 10 -220 -20 -365 -31 -153 -43 -186 -111 -300 -92 -158
-223 -279 -406 -378 -114 -62 -179 -83 -310 -102 -141 -19 -233 -19 -339 1
-47 9 -97 16 -112 16 -15 -1 -30 3 -33 8 -3 5 -56 34 -118 64 -126 61 -212
127 -303 233 -161 187 -229 363 -240 623 -7 151 8 263 51 389 13 40 23 76 22
79 -1 4 6 18 16 32 10 14 36 53 58 87 47 73 151 180 240 248 74 57 221 136
305 166 141 49 360 62 516 30z"/>
<path d="M1193 1748 c-13 -6 -32 -31 -44 -55 -18 -37 -21 -56 -16 -111 3 -37
13 -90 22 -119 l18 -52 -34 -40 c-19 -22 -39 -40 -45 -40 -5 -1 -23 -14 -38
-30 -25 -26 -27 -34 -24 -97 3 -64 2 -69 -17 -67 -11 1 -83 3 -160 3 -239 1
-308 -25 -336 -124 -20 -72 29 -199 111 -289 l49 -54 -20 -52 c-24 -65 -16
-83 48 -108 37 -14 76 -18 173 -18 122 0 127 1 193 33 83 41 108 37 100 -14
-4 -25 -2 -39 8 -45 26 -16 93 -9 135 15 29 16 63 25 119 29 73 5 81 4 108
-19 33 -28 73 -31 106 -8 19 14 22 23 18 50 -5 29 -2 36 26 53 63 39 122 136
132 217 8 57 -14 124 -39 124 -20 0 -20 -14 0 -46 12 -18 15 -37 10 -70 -13
-101 -72 -175 -178 -225 -72 -34 -74 -34 -213 -34 -158 0 -224 15 -304 70 -81
56 -115 169 -75 247 23 44 2 61 -24 19 -25 -42 -35 -114 -22 -163 6 -21 8 -43
5 -48 -4 -6 -2 -9 3 -8 13 4 64 -60 57 -72 -3 -5 0 -7 9 -4 8 3 23 1 32 -4 15
-8 12 -13 -22 -30 -84 -42 -207 -53 -309 -27 -85 23 -87 26 -63 93 l20 57 -52
54 c-97 99 -145 256 -95 311 44 48 69 54 263 58 117 3 187 1 194 -6 7 -7 -44
-10 -158 -9 -145 2 -174 -1 -201 -16 -39 -21 -43 -50 -10 -72 30 -19 145 -34
270 -35 90 0 97 -1 97 -20 0 -11 4 -20 9 -20 14 0 21 27 22 78 0 26 3 65 7 87
l8 40 26 -57 c40 -87 42 -95 18 -103 -11 -3 -20 -11 -20 -17 0 -11 48 -7 82 7
12 5 20 1 25 -11 4 -12 -3 -26 -25 -45 -37 -33 -41 -49 -12 -49 17 0 20 -7 20
-48 0 -79 26 -150 63 -172 42 -26 78 -25 112 2 26 21 27 24 20 82 -4 34 -7 75
-7 91 0 26 -6 33 -49 52 -64 29 -65 51 -1 55 56 4 59 22 4 26 -37 3 -39 5 -54
55 -33 107 -33 107 5 107 18 0 42 -7 53 -15 23 -17 85 -20 101 -4 7 7 29 15
49 18 50 8 57 31 10 31 -52 0 -86 19 -86 47 0 20 -5 24 -22 21 -16 -2 -23 -10
-23 -25 0 -31 -9 -36 -69 -43 l-54 -6 -12 61 c-15 78 -37 123 -63 131 -20 6
-19 9 17 41 l37 34 -21 56 c-53 142 -24 289 53 269 44 -11 75 -87 92 -223 l7
-52 -34 -9 c-43 -11 -46 -39 -3 -32 45 7 116 5 153 -4 25 -7 32 -5 32 7 0 8
-9 17 -20 20 -17 4 -20 13 -20 54 0 64 25 176 45 207 32 48 94 46 120 -4 22
-42 18 -105 -11 -185 -13 -38 -27 -78 -30 -87 -4 -11 8 -29 35 -53 22 -20 49
-51 60 -68 29 -47 72 -182 85 -266 6 -42 17 -76 24 -79 39 -13 -21 258 -79
357 -12 20 -38 52 -57 73 l-34 36 22 63 c55 160 23 279 -75 279 -71 0 -118
-81 -130 -228 -7 -76 -9 -82 -30 -82 -20 0 -23 8 -39 101 -28 173 -81 237
-163 197z m-40 -460 c16 -16 28 -49 40 -111 10 -48 28 -121 41 -162 13 -41 20
-75 15 -75 -5 0 -9 -12 -9 -27 0 -28 35 -73 56 -73 20 0 45 -56 51 -116 5 -50
4 -54 -21 -65 -32 -15 -67 -2 -91 35 -24 36 -38 186 -19 207 22 24 18 76 -7
89 -11 7 -27 9 -35 6 -10 -4 -19 4 -26 24 -5 17 -28 67 -49 111 -45 92 -49
129 -17 159 28 26 44 25 71 -2z"/>
</g>
</svg>
